{"title":"The Road to Hong Kong (1962) 720p AC3 HDTV","uid":8577977,"size":1653611582,"categoryP":"video","categoryS":"hd___movies","magnet":"?xt=urn:btih:0ef73698f0ae15014ebb98afd771f0b605feed4e&amp;dn=The+Road+to+Hong+Kong+%281962%29+720p+AC3+HDTV&amp;tr=udp%3A%2F%2Ftracker.openbittorrent.com%3A80&amp;tr=udp%3A%2F%2Fopen.demonii.com%3A1337&amp;tr=udp%3A%2F%2Ftracker.coppersurfer.tk%3A6969&amp;tr=udp%3A%2F%2Fexodus.desync.com%3A6969","seeders":1,"leechers":0,"uploader":null,"files":2,"time":1371329022,"description":"This is my own rip.\n\nSorry about the lack of chapter stops, but I nothing I own has them.\n\n\nGeneral\nUnique ID                        : 184905230146802491875516148341293525713 (0x8B1B73B3BD42A502B1C48A3BD7E12AD1)\nFormat                           : Matroska\nFormat version                   : Version 4 / Version 2\nFile size                        : 1.52 GiB\nDuration                         : 1h 31mn\nOverall bit rate mode            : Variable\nOverall bit rate                 : 2 382 Kbps\nEncoded date                     : UTC 2013-06-15 15:41:11\nWriting application              : mkvmerge v6.1.0 ('Old Devil') built on Mar  2 2013 14:32:37\nWriting library                  : libebml v1.3.0 + libmatroska v1.4.0\n\nVideo\nID                               : 1\nFormat                           : AVC\nFormat/Info                      : Advanced Video Codec\nFormat profile                   : &lt;a class=&quot;__cf_email__&quot; href=&quot;/cdn-cgi/l/email-protection&quot; data-cfemail=&quot;eaa2838d82aaa6dec4db&quot;&gt;[email&amp;#160;protected]&lt;/a&gt;&lt;script cf-hash='f9e31' type=&quot;text/javascript&quot;&gt;\n/* &lt;![CDATA[ */!function(){try{var t=&quot;currentScript&quot;in document?document.currentScript:function(){for(var t=document.getElementsByTagName(&quot;script&quot;),e=t.length;e--;)if(t[e].getAttribute(&quot;cf-hash&quot;))return t[e]}();if(t&amp;&amp;t.previousSibling){var e,r,n,i,c=t.previousSibling,a=c.getAttribute(&quot;data-cfemail&quot;);if(a){for(e=&quot;&quot;,r=parseInt(a.substr(0,2),16),n=2;a.length-n;n+=2)i=parseInt(a.substr(n,2),16)^r,e+=String.fromCharCode(i);e=document.createTextNode(e),c.parentNode.replaceChild(e,c)}}}catch(u){}}();/* ]]&gt; */&lt;/script&gt;\nFormat settings, CABAC           : Yes\nFormat settings, ReFrames        : 7 frames\nCodec ID                         : V_MPEG4/ISO/AVC\nDuration                         : 1h 31mn\nBit rate mode                    : Variable\nBit rate                         : 1 950 Kbps\nMaximum bit rate                 : 7.98 Mbps\nWidth                            : 1 204 pixels\nHeight                           : 720 pixels\nDisplay aspect ratio             : 1.672\nFrame rate                       : 23.976 fps\nColor space                      : YUV\nChroma subsampling               : 4:2:0\nBit depth                        : 8 bits\nScan type                        : Progressive\nBits/(Pixel*Frame)               : 0.094\nStream size                      : 1.25 GiB (82%)\nWriting library                  : x264 core 129 r2245 bc13772\nLanguage                         : English\nDefault                          : Yes\nForced                           : No\n\nAudio\nID                               : 2\nFormat                           : AC-3\nFormat/Info                      : Audio Coding 3\nMode extension                   : CM (complete main)\nCodec ID                         : A_AC3\nDuration                         : 1h 31mn\nBit rate mode                    : Constant\nBit rate                         : 384 Kbps\nChannel(s)                       : 1 channel\nChannel positions                : Front: C\nSampling rate                    : 48.0 KHz\nBit depth                        : 16 bits\nCompression mode                 : Lossy\nStream size                      : 251 MiB (16%)\nLanguage                         : English\nDefault                          : Yes\nForced                           : No\n","torrent":{"xt":"urn:btih:0ef73698f0ae15014ebb98afd771f0b605feed4e","amp;dn":"The+Road+to+Hong+Kong+%281962%29+720p+AC3+HDTV","amp;tr":["udp%3A%2F%2Ftracker.openbittorrent.com%3A80","udp%3A%2F%2Fopen.demonii.com%3A1337","udp%3A%2F%2Ftracker.coppersurfer.tk%3A6969","udp%3A%2F%2Fexodus.desync.com%3A6969"],"infoHash":"0ef73698f0ae15014ebb98afd771f0b605feed4e","infoHashBuffer":{"type":"Buffer","data":[14,247,54,152,240,174,21,1,78,187,152,175,215,113,240,182,5,254,237,78]},"announce":[],"urlList":[]}}